<svg id="Layer_1" data-name="Layer 1" xmlns="http://www.w3.org/2000/svg" xmlns:xlink="http://www.w3.org/1999/xlink" viewBox="0 0 75 75"><defs><style>.cls-1{fill:none;}.cls-2{clip-path:url(#clip-path);}.cls-3{fill:#fff;}.cls-4{fill:#4d4d4d;}.cls-5{fill:#d9d9d8;}.cls-6{fill:#f58120;}.cls-7{fill:#272626;}</style><clipPath id="clip-path"><circle class="cls-1" cx="37.5" cy="37.5" r="36.75"/></clipPath></defs><title>prog-icons</title><g class="cls-2"><path class="cls-3" d="M-5-.63H81v9.8a4.71,4.71,0,0,0-1.68-2.4,5.67,5.67,0,0,0-2.77-.64A6.79,6.79,0,0,0,76,2.68,6,6,0,0,0,72.31-.17a29.85,29.85,0,0,0-3.05-.05H5.1A6.38,6.38,0,0,0,.67,2c-1.16,1.28-1.2,3.1-1.13,4.73A5.42,5.42,0,0,0-5,10.16V-0.63Z"/><path class="cls-4" d="M0.67,2A6.38,6.38,0,0,1,5.1-.23H69.26a29.85,29.85,0,0,1,3.05.05A6,6,0,0,1,76,2.68a6.79,6.79,0,0,1,.52,3.45c0.07,14.19,0,28.39,0,42.58,0,7.41.1,14.82-.11,22.23-0.06-2.7,0-5.4-.17-8.09a5,5,0,0,1-4.71,3.79q-33.24,0-66.48,0A5.77,5.77,0,0,1-.27,62.72c-0.1,2.73-.1,5.46-0.09,8.19-0.25-2-.06-4-0.13-6.07,0-19.37,0-38.75,0-58.12C-0.52,5.09-.49,3.27.67,2Z"/><path class="cls-5" d="M76.54,6.13a5.67,5.67,0,0,1,2.77.64A4.71,4.71,0,0,1,81,9.17V77.09a7.08,7.08,0,0,1-2.36,4.56c-1.15.87-2.68,0.65-4,.69q-35.93,0-71.85,0c-3.56.07-6.41-2.81-7.71-5.9V10.16A5.42,5.42,0,0,1-.46,6.72c-0.05,19.37,0,38.75,0,58.12,0.07,2-.12,4.06.13,6.07a5.69,5.69,0,0,0,5.46,4.4q33.27,0,66.54,0a5.18,5.18,0,0,0,4.83-4.36c0.21-7.4.07-14.82,0.11-22.23C76.59,34.52,76.61,20.33,76.54,6.13Z"/><path class="cls-6" d="M28.45,19c3.09-3.51,8.12-4.73,12.62-4.08a16.91,16.91,0,0,1,9.41,4.59c-1.41,1.73-2.8,3.45-4.19,5.19-2.58-2.07-6-3.48-9.32-2.68a3.23,3.23,0,0,0-2.73,3.22c0.14,1.43,1.45,2.29,2.65,2.83,2.73,1.23,5.54,2.24,8.29,3.43a10.45,10.45,0,0,1,5.42,5,10.72,10.72,0,0,1-1.11,10.57,12.49,12.49,0,0,1-7,4.49A19.71,19.71,0,0,1,24.62,47,2.22,2.22,0,0,1,25.25,46c1.35-1.56,2.64-3.17,4-4.74,2.64,2.2,6,3.9,9.47,3.77,1.64-.09,3.69-0.62,4.24-2.39a3.09,3.09,0,0,0-1.7-3.84c-3-1.5-6.12-2.59-9.13-4A11,11,0,0,1,27,29.9,10,10,0,0,1,28.45,19Z"/><path class="cls-7" d="M71.6,66.64a5,5,0,0,0,4.71-3.79c0.15,2.7.11,5.4,0.17,8.09a5.18,5.18,0,0,1-4.83,4.36q-33.27,0-66.54,0a5.69,5.69,0,0,1-5.46-4.4c0-2.73,0-5.46.09-8.19a5.77,5.77,0,0,0,5.39,3.93Q38.36,66.63,71.6,66.64Z"/></g></svg>