<svg id="Layer_1" data-name="Layer 1" xmlns="http://www.w3.org/2000/svg" xmlns:xlink="http://www.w3.org/1999/xlink" viewBox="0 0 75 75"><defs><style>.cls-1{fill:url(#New_Gradient_Swatch_copy);}.cls-2{stroke:#ee468b;stroke-miterlimit:10;stroke-width:3.48px;fill:url(#New_Gradient_Swatch_copy-2);}.cls-3{fill:#ee468b;}</style><radialGradient id="New_Gradient_Swatch_copy" cx="37.5" cy="37.5" r="31.85" gradientUnits="userSpaceOnUse"><stop offset="0" stop-color="#4b2c37" stop-opacity="0.98"/><stop offset="1" stop-color="#250f18"/></radialGradient><radialGradient id="New_Gradient_Swatch_copy-2" cx="37.5" cy="37.5" r="35" xlink:href="#New_Gradient_Swatch_copy"/></defs><title>prog-icons</title><circle class="cls-1" cx="37.5" cy="37.5" r="31.85"/><path class="cls-2" d="M37.5,72.5A35,35,0,0,1,12.75,12.75a35,35,0,1,1,49.5,49.5A34.77,34.77,0,0,1,37.5,72.5Z"/><path class="cls-3" d="M47.79,33.14a4.49,4.49,0,0,0-1.91-.33c-4.16,0-7.08,3.2-7.08,8.53,0,6.07,3,8.53,6.69,8.53a5.77,5.77,0,0,0,2.3-.39V33.14h0Zm-1.71-5.27a15.28,15.28,0,0,1,1.71.06V19.35A0.3,0.3,0,0,1,48.11,19h5.23c0.26,0,.33.09,0.33,0.26V49.5a25.33,25.33,0,0,0,.16,3.26,0.36,0.36,0,0,1-.3.39,19.82,19.82,0,0,1-8.46,1.91c-7.14,0-12.25-4.43-12.25-13.45C32.78,33.89,37.89,27.88,46.08,27.88Z"/><path class="cls-3" d="M27.1,54.14c0,0.33-.06.42-0.42,0.42h-5a0.36,0.36,0,0,1-.42-0.42V19.44A0.36,0.36,0,0,1,21.71,19h5a0.33,0.33,0,0,1,.39.39V54.14h0Z"/></svg>