<svg id="Layer_1" data-name="Layer 1" xmlns="http://www.w3.org/2000/svg" xmlns:xlink="http://www.w3.org/1999/xlink" viewBox="0 0 75 75"><defs><style>.cls-1{fill:url(#New_Gradient_Swatch);}.cls-2{stroke:#f57f22;stroke-miterlimit:10;stroke-width:3.48px;fill:url(#New_Gradient_Swatch-2);}.cls-3{fill:#f57f22;}</style><radialGradient id="New_Gradient_Swatch" cx="38.01" cy="38.01" r="32.28" gradientTransform="scale(0.99 0.99)" gradientUnits="userSpaceOnUse"><stop offset="0" stop-color="#433426" stop-opacity="0.98"/><stop offset="1" stop-color="#1f110a"/></radialGradient><radialGradient id="New_Gradient_Swatch-2" cx="38.01" cy="38.01" r="35.48" xlink:href="#New_Gradient_Swatch"/></defs><title>prog-icons</title><circle class="cls-1" cx="37.5" cy="37.5" r="31.85"/><path class="cls-2" d="M37.5,72.5A35,35,0,0,1,12.75,12.75a35,35,0,1,1,49.5,49.5A34.77,34.77,0,0,1,37.5,72.5Z"/><path class="cls-3" d="M49.44,28.89a0.33,0.33,0,0,1,.39-0.39h5a0.33,0.33,0,0,1,.39.39V54.21a0.32,0.32,0,0,1-.39.39h-5a0.36,0.36,0,0,1-.42-0.42V28.89h0Z"/><path class="cls-3" d="M49.09,21.59a3.27,3.27,0,1,1,6.54,0,3.06,3.06,0,0,1-3.33,3.27A3,3,0,0,1,49.09,21.59Z"/><path class="cls-3" d="M34.65,39.44c-0.89-3.56-3-11.32-3.82-15.08H30.77C30.09,28.1,28.39,34.46,27,39.44h7.6Zm-8.91,5.2-2.53,9.62c-0.06.26-.15,0.32-0.48,0.32H18c-0.32,0-.39-0.09-0.32-0.48L26.8,22.21a10.52,10.52,0,0,0,.32-2.67,0.26,0.26,0,0,1,.26-0.32h6.74a0.33,0.33,0,0,1,.39.32L44.72,54.17c0.06,0.26,0,.42-0.26.42H39.14a0.4,0.4,0,0,1-.48-0.29L36,44.63H25.74Z"/></svg>