<svg id="Layer_1" data-name="Layer 1" xmlns="http://www.w3.org/2000/svg" xmlns:xlink="http://www.w3.org/1999/xlink" viewBox="0 0 75 75"><defs><style>.cls-1{stroke:#37c5ef;stroke-miterlimit:10;stroke-width:3.48px;fill:url(#radial-gradient);}.cls-2{fill:url(#radial-gradient-2);}.cls-3{fill:url(#radial-gradient-3);}.cls-4{fill:#37c5ef;}</style><radialGradient id="radial-gradient" cx="25.55" cy="18.22" r="53.05" gradientUnits="userSpaceOnUse"><stop offset="0" stop-color="#35374e" stop-opacity="0.98"/><stop offset="1" stop-color="#131124"/></radialGradient><radialGradient id="radial-gradient-2" cx="-1295.09" cy="-814.98" r="0.09" gradientTransform="translate(801319.19 488217.02) scale(618.72 599.03)" xlink:href="#radial-gradient"/><radialGradient id="radial-gradient-3" cx="26.63" cy="19.96" r="48.27" xlink:href="#radial-gradient"/></defs><title>prog-icons</title><path class="cls-1" d="M37.5,72.5A35,35,0,0,1,12.75,12.75a35,35,0,1,1,49.5,49.5A34.77,34.77,0,0,1,37.5,72.5Z"/><circle class="cls-2" cx="37.5" cy="37.5" r="31.85"/><circle class="cls-3" cx="37.5" cy="37.5" r="31.85"/><path class="cls-4" d="M51,33c-2.51,0-3.37,1.27-3.37,2.33s0.57,1.95,4,3.7c5,2.42,6.56,4.75,6.56,8.16,0,5.11-3.89,7.85-9.16,7.85a13.84,13.84,0,0,1-6.53-1.36,0.44,0.44,0,0,1-.26-0.51V48.5c0-.32.15-0.41,0.38-0.26A11.89,11.89,0,0,0,49,50.13c2.51,0,3.57-1.06,3.57-2.48,0-1.15-.74-2.16-4-3.83-4.52-2.16-6.41-4.36-6.41-8,0-4.11,3.22-7.53,8.8-7.53a14.66,14.66,0,0,1,5.7.89,0.69,0.69,0,0,1,.32.64v4.37a0.32,0.32,0,0,1-.48.32A10.84,10.84,0,0,0,51,33h0ZM23.62,36.83c0.74,0.06,1.3.06,2.58,0.06,3.73,0,7.24-1.3,7.24-6.38,0-4-2.51-6.09-6.76-6.09-1.27,0-2.48.06-3.07,0.09l0,12.31h0ZM17.93,19.9a0.71,0.71,0,0,1,.71-0.38c2-.09,5.08-0.15,8.22-0.15,8.83,0,12.28,4.85,12.28,11,0,8.1-5.87,11.58-13.08,11.58-1.21,0-1.63-.06-2.48-0.06V54.14a0.32,0.32,0,0,1-.38.38H18.31a0.32,0.32,0,0,1-.38-0.38V19.9h0Z"/></svg>